{
  "accessors": [
    {
      "bufferView": 1,
      "componentType": 5126,
      "count": 48,
      "max": [
        2.7479815483093262,
        1.1081658601760864,
        5.1395745277404785
      ],
      "min": [
        -4.5420384407043457,
        -1.5865474939346313,
        -8.6254195111193713e-15
      ],
      "type": "VEC3"
    },
    {
      "bufferView": 1,
      "byteOffset": 576,
      "componentType": 5126,
      "count": 48,
      "max": [
        0.86940497159957886,
        0.99661213159561157,
        1
      ],
      "min": [
        -0.83939969539642334,
        -0.99658524990081787,
        -1
      ],
      "type": "VEC3"
    },
    {
      "bufferView": 0,
      "componentType": 5125,
      "count": 60,
      "max": [
        47
      ],
      "min": [
        0
      ],
      "type": "SCALAR"
    },
    {
      "bufferView": 1,
      "byteOffset": 1152,
      "componentType": 5126,
      "count": 72,
      "max": [
        2.7479815483093262,
        5.4578227996826172,
        6.9872856140136719
      ],
      "min": [
        -6.4153890609741211,
        -1.5865474939346313,
        0
      ],
      "type": "VEC3"
    },
    {
      "bufferView": 1,
      "byteOffset": 2016,
      "componentType": 5126,
      "count": 72,
      "max": [
        0.98792976140975952,
        0.81135886907577515,
        0.89646637439727783
      ],
      "min": [
        -0.83939969539642334,
        -0.99658524990081787,
        -1
      ],
      "type": "VEC3"
    },
    {
      "bufferView": 0,
      "byteOffset": 240,
      "componentType": 5125,
      "count": 90,
      "max": [
        71
      ],
      "min": [
        0
      ],
      "type": "SCALAR"
    },
    {
      "bufferView": 1,
      "byteOffset": 2880,
      "componentType": 5126,
      "count": 96,
      "max": [
        4.389622688293457,
        9.5419235229492188,
        9.0704507827758789
      ],
      "min": [
        -7.7652440071105957,
        -1.5865474939346313,
        -1.2846428632776359e-14
      ],
      "type": "VEC3"
    },
    {
      "bufferView": 1,
      "byteOffset": 4032,
      "componentType": 5126,
      "count": 96,
      "max": [
        0.96498888731002808,
        0.98998469114303589,
        0.89646631479263306
      ],
      "min": [
        -0.90707176923751831,
        -0.99658524990081787,
        -1
      ],
      "type": "VEC3"
    },
    {
      "bufferView": 0,
      "byteOffset": 600,
      "componentType": 5125,
      "count": 120,
      "max": [
        95
      ],
      "min": [
        0
      ],
      "type": "SCALAR"
    },
    {
      "bufferView": 1,
      "byteOffset": 5184,
      "componentType": 5126,
      "count": 96,
      "max": [
        3.6432361602783203,
        6.2861499786376953,
        5.6055684089660645
      ],
      "min": [
        -5.2184872627258301,
        -1.9817028045654297,
        0
      ],
      "type": "VEC3"
    },
    {
      "bufferView": 1,
      "byteOffset": 6336,
      "componentType": 5126,
      "count": 96,
      "max": [
        0.86051845550537109,
        0.94268172979354858,
        0.91135513782501221
      ],
      "min": [
        -0.97397309541702271,
        -0.99427402019500732,
        -1
      ],
      "type": "VEC3"
    },
    {
      "bufferView": 0,
      "byteOffset": 1080,
      "componentType": 5125,
      "count": 120,
      "max": [
        95
      ],
      "min": [
        0
      ],
      "type": "SCALAR"
    }
  ],
  "asset": {
    "extras": {
      "author": "Anskar (https://sketchfab.com/Anskar)",
      "license": "CC-BY-4.0 (http://creativecommons.org/licenses/by/4.0/)",
      "source": "https://sketchfab.com/3d-models/low-poly-grass-pack-2ffb4d5302c14d038eaf6488b8c7ede2",
      "title": "Low Poly Grass Pack"
    },
    "generator": "Sketchfab-7.51.0",
    "version": "2.0"
  },
  "bufferViews": [
    {
      "buffer": 0,
      "byteLength": 1560,
      "byteOffset": 0,
      "name": "floatBufferViews",
      "target": 34963
    },
    {
      "buffer": 0,
      "byteLength": 7488,
      "byteOffset": 1560,
      "byteStride": 12,
      "name": "floatBufferViews",
      "target": 34962
    }
  ],
  "buffers": [
    {
      "byteLength": 9048,
      "uri": "scene.bin"
    }
  ],
  "materials": [
    {
      "doubleSided": true,
      "emissiveFactor": [
        0,
        0,
        0
      ],
      "name": "Grass",
      "pbrMetallicRoughness": {
        "baseColorFactor": [
          0.025709200000000001,
          0.39954699999999999,
          0.13545299999999999,
          1
        ],
        "metallicFactor": 0,
        "roughnessFactor": 0.82394172574614266
      }
    }
  ],
  "meshes": [
    {
      "name": "Circle.018_Grass_0",
      "primitives": [
        {
          "attributes": {
            "NORMAL": 1,
            "POSITION": 0
          },
          "indices": 2,
          "material": 0,
          "mode": 4
        }
      ]
    },
    {
      "name": "Circle.015_Grass_0",
      "primitives": [
        {
          "attributes": {
            "NORMAL": 4,
            "POSITION": 3
          },
          "indices": 5,
          "material": 0,
          "mode": 4
        }
      ]
    },
    {
      "name": "Circle.012_Grass_0",
      "primitives": [
        {
          "attributes": {
            "NORMAL": 7,
            "POSITION": 6
          },
          "indices": 8,
          "material": 0,
          "mode": 4
        }
      ]
    },
    {
      "name": "Circle.005_Grass_0",
      "primitives": [
        {
          "attributes": {
            "NORMAL": 10,
            "POSITION": 9
          },
          "indices": 11,
          "material": 0,
          "mode": 4
        }
      ]
    }
  ],
  "nodes": [
    {
      "children": [
        1
      ],
      "name": "RootNode (gltf orientation matrix)",
      "rotation": [
        -0.70710678118654746,
        -0,
        -0,
        0.70710678118654757
      ]
    },
    {
      "children": [
        2
      ],
      "name": "RootNode (model correction matrix)"
    },
    {
      "children": [
        3
      ],
      "matrix": [
        1,
        0,
        0,
        0,
        0,
        0,
        1,
        0,
        0,
        -1,
        0,
        0,
        0,
        0,
        0,
        1
      ],
      "name": "Low poly Grass pack.fbx"
    },
    {
      "children": [
        4,
        6,
        8,
        10
      ],
      "name": "RootNode"
    },
    {
      "children": [
        5
      ],
      "matrix": [
        3.6970768515338905,
        0,
        -1.2651343489160392,
        0,
        -1.265134348916038,
        -1.7080441519489015e-07,
        -3.6970768515338874,
        0,
        -7.3511942462079202e-08,
        5.194348812103267,
        -2.1482248222433346e-07,
        0,
        56.81500244140625,
        1.1202375389984809e-05,
        128.37309265136719,
        1
      ],
      "name": "Circle.018"
    },
    {
      "mesh": 0,
      "name": "Circle.018_Grass_0"
    },
    {
      "children": [
        7
      ],
      "matrix": [
        2.1363789699382112,
        -1.7499818480793073e-16,
        -2.318201766766129,
        0,
        -2.3182017667661228,
        2.3800614964939121e-07,
        -2.1363789699382054,
        0,
        3.1764048263941578e-07,
        5.721409797668441,
        2.9272708525847831e-07,
        0,
        -55.146026611328125,
        1.1229555639147293e-05,
        133.24630737304688,
        1
      ],
      "name": "Circle.015"
    },
    {
      "mesh": 1,
      "name": "Circle.015_Grass_0"
    },
    {
      "children": [
        9
      ],
      "matrix": [
        1.1181302266559867,
        4.4092056547350269e-16,
        -3.8108102120930933,
        0,
        -3.810810212093021,
        7.7327169396061624e-07,
        -1.1181302266559654,
        0,
        1.3466323977949464e-06,
        7.2077527046202237,
        3.9511555543237446e-07,
        0,
        62.164688110351562,
        1.1202375389984809e-05,
        1.2975692749023438,
        1
      ],
      "name": "Circle.012"
    },
    {
      "mesh": 2,
      "name": "Circle.012_Grass_0"
    },
    {
      "children": [
        11
      ],
      "matrix": [
        4.5992210144560746,
        7.981051313037275e-18,
        -0.11909999036569721,
        0,
        -0.11909999036569689,
        3.4734793128025155e-07,
        -4.599221014456063,
        0,
        1.7859335530972882e-08,
        9.1379451751708736,
        6.8966446634414694e-07,
        0,
        -54.611587524414062,
        1.1202375389984809e-05,
        6.6736698150634766,
        1
      ],
      "name": "Circle.005"
    },
    {
      "mesh": 3,
      "name": "Circle.005_Grass_0"
    }
  ],
  "scene": 0,
  "scenes": [
    {
      "name": "OSG_Scene",
      "nodes": [
        0
      ]
    }
  ]
}

